<mxfile host="Electron" agent="Mozilla/5.0 (Windows NT 10.0; Win64; x64) AppleWebKit/537.36 (KHTML, like Gecko) draw.io/27.0.9 Chrome/134.0.6998.205 Electron/35.4.0 Safari/537.36" version="27.0.9">
  <diagram name="Page-1" id="E6KlZz85oSWzhTEUbEtW">
    <mxGraphModel dx="2431" dy="1413" grid="1" gridSize="10" guides="1" tooltips="1" connect="1" arrows="1" fold="1" page="1" pageScale="1" pageWidth="827" pageHeight="1169" math="0" shadow="0">
      <root>
        <mxCell id="0" />
        <mxCell id="1" parent="0" />
        <mxCell id="SFipBMj3nhwFo_Jgz6M--14" value="" style="rounded=1;whiteSpace=wrap;html=1;strokeWidth=3;" vertex="1" parent="1">
          <mxGeometry x="103.26000000000002" y="420" width="337.83" height="140" as="geometry" />
        </mxCell>
        <mxCell id="SFipBMj3nhwFo_Jgz6M--1" value="" style="shape=image;verticalLabelPosition=bottom;labelBackgroundColor=default;verticalAlign=top;aspect=fixed;imageAspect=0;editableCssRules=.*;image=data:image/svg+xml,PHN2ZyB4bWxucz0iaHR0cDovL3d3dy53My5vcmcvMjAwMC9zdmciIHZlcnNpb249IjEuMSIgaWQ9InN2ZzMyMTQiIGZvbnQtc2l6ZT0iNDBweCIgZm9udC13ZWlnaHQ9Im5vcm1hbCIgZm9udC1zdHJldGNoPSJjb25kZW5zZWQiIGZvbnQtZmFtaWx5PSJEZWphVnUgU2FucyxzYW5zLXNlcmlmIiBoZWlnaHQ9IjQ3LjY2MTk4NzMwNDY4NzUiIHdpZHRoPSIxMTYuMTc4MDA5MDMzMjAzMTIiIHZpZXdCb3g9IjUuOTk5OTg0NzQxMjEwOTM3NSA2IDExNi4xNzgwMDkwMzMyMDMxMiA0Ny42NjE5ODczMDQ2ODc1Ij4mI3hhOyAgPG1ldGFkYXRhIGlkPSJtZXRhZGF0YTMyMTkiPiYjeGE7ICAgICYjeGE7ICAgICAgJiN4YTsgICAgICAgIGltYWdlL3N2Zyt4bWwmI3hhOyAgICAgICAgJiN4YTsgICAgICAgICYjeGE7ICAgICAgJiN4YTsgICAgJiN4YTsgIDwvbWV0YWRhdGE+JiN4YTsgIDxnIHRyYW5zZm9ybT0idHJhbnNsYXRlKC0xMzguNzY4MTQsLTIzMy45NTk3NSkiIGlkPSJsYXllcjEiPiYjeGE7ICAgIDxnIHRyYW5zZm9ybT0idHJhbnNsYXRlKDExNC4yMTMxNCwxMTYuODcwNzUpIiBpZD0iZzIyMzciPiYjeGE7ICAgICAgPHBhdGggaWQ9InBhdGgyMjM5IiBzdHlsZT0iZmlsbDojZmZmZmZmO3N0cm9rZTojMDAwMDAwO3N0cm9rZS13aWR0aDoyIiBkPSJtIDE0Ni43MzIsMTY0Ljc1MiBjIDAsMy4zMTIgLTIuNjg1LDUuOTk5IC02LDUuOTk5IGwgLTEwNC4xNzcsMCBjIC0zLjMxNSwwIC02LC0yLjY4NyAtNiwtNS45OTkgbCAwLC0zNS42NjMgYyAwLC0zLjMxNiAyLjY4NSwtNiA2LC02IGwgMTA0LjE3OCwwIGMgMy4zMTUsMCA2LDIuNjg0IDYsNiBsIDAsMzUuNjYzIC0wLjAwMSwwIHoiLz4mI3hhOyAgICAgIDxnIGlkPSJnMjI0MSI+JiN4YTsgICAgICAgIDxjaXJjbGUgZD0ibSA2OC44Mjk5OTcsMTQxLjM1MSBjIDAsMS4yMzc2NyAtMS4wMDMzMywyLjI0MSAtMi4yNDEsMi4yNDEgLTEuMjM3NjcsMCAtMi4yNDEsLTEuMDAzMzMgLTIuMjQxLC0yLjI0MSAwLC0xLjIzNzY3IDEuMDAzMzMsLTIuMjQxIDIuMjQxLC0yLjI0MSAxLjIzNzY3LDAgMi4yNDEsMS4wMDMzMyAyLjI0MSwyLjI0MSB6IiBpZD0iY2lyY2xlMjI0MyIgc3R5bGU9ImZpbGw6bm9uZTtzdHJva2U6IzAwMDAwMCIgcj0iMi4yNDA5OTk5IiBjeT0iMTQxLjM1MSIgY3g9IjY2LjU4ODk5NyIvPiYjeGE7ICAgICAgICA8Y2lyY2xlIGQ9Im0gNzkuODU4OTk2LDE0MS4zNTEgYyAwLDEuMjM3NjcgLTEuMDAzMzMsMi4yNDEgLTIuMjQxLDIuMjQxIC0xLjIzNzY3LDAgLTIuMjQxLC0xLjAwMzMzIC0yLjI0MSwtMi4yNDEgMCwtMS4yMzc2NyAxLjAwMzMzLC0yLjI0MSAyLjI0MSwtMi4yNDEgMS4yMzc2NywwIDIuMjQxLDEuMDAzMzMgMi4yNDEsMi4yNDEgeiIgaWQ9ImNpcmNsZTIyNDUiIHN0eWxlPSJmaWxsOm5vbmU7c3Ryb2tlOiMwMDAwMDAiIHI9IjIuMjQwOTk5OSIgY3k9IjE0MS4zNTEiIGN4PSI3Ny42MTc5OTYiLz4mI3hhOyAgICAgICAgPGNpcmNsZSBkPSJtIDkwLjg4MTk5NywxNDEuMzUxIGMgMCwxLjIzNjAxIC0xLjAwMTk4NywyLjIzOCAtMi4yMzgsMi4yMzggLTEuMjM2MDEzLDAgLTIuMjM4LC0xLjAwMTk5IC0yLjIzOCwtMi4yMzggMCwtMS4yMzYwMiAxLjAwMTk4NywtMi4yMzggMi4yMzgsLTIuMjM4IDEuMjM2MDEzLDAgMi4yMzgsMS4wMDE5OCAyLjIzOCwyLjIzOCB6IiBpZD0iY2lyY2xlMjI0NyIgc3R5bGU9ImZpbGw6bm9uZTtzdHJva2U6IzAwMDAwMCIgcj0iMi4yMzc5OTk5IiBjeT0iMTQxLjM1MSIgY3g9Ijg4LjY0Mzk5NyIvPiYjeGE7ICAgICAgICA8cGF0aCBpZD0icGF0aDIyNDkiIHN0eWxlPSJmaWxsOm5vbmU7c3Ryb2tlOiMwMDAwMDAiIGQ9Im0gOTkuNjY4LDEzOS4xMSBjIDEuMjM4LDAgMi4yNDIsMS4wMDQgMi4yNDIsMi4yNDEgMCwxLjIzNyAtMS4wMDQsMi4yNCAtMi4yNDIsMi4yNCAtMS4yMzMsMCAtMi4yMzcsLTEuMDAzIC0yLjIzNywtMi4yNCAwLC0xLjIzNyAxLjAwNCwtMi4yNDEgMi4yMzcsLTIuMjQxIHoiLz4mI3hhOyAgICAgICAgPGNpcmNsZSBkPSJtIDExMi45MzgsMTQxLjM1MSBjIDAsMS4yMzc2NyAtMS4wMDMzMywyLjI0MSAtMi4yNDEsMi4yNDEgLTEuMjM3NjcsMCAtMi4yNDEsLTEuMDAzMzMgLTIuMjQxLC0yLjI0MSAwLC0xLjIzNzY3IDEuMDAzMzMsLTIuMjQxIDIuMjQxLC0yLjI0MSAxLjIzNzY3LDAgMi4yNDEsMS4wMDMzMyAyLjI0MSwyLjI0MSB6IiBpZD0iY2lyY2xlMjI1MSIgc3R5bGU9ImZpbGw6bm9uZTtzdHJva2U6IzAwMDAwMCIgcj0iMi4yNDA5OTk5IiBjeT0iMTQxLjM1MSIgY3g9IjExMC42OTciLz4mI3hhOyAgICAgICAgPGNpcmNsZSBkPSJtIDc0LjM0MTk5NywxNTIuNDkxIGMgMCwxLjIzNjU2IC0xLjAwMjQzNSwyLjIzOSAtMi4yMzksMi4yMzkgLTEuMjM2NTY2LDAgLTIuMjM5LC0xLjAwMjQ0IC0yLjIzOSwtMi4yMzkgMCwtMS4yMzY1NyAxLjAwMjQzNCwtMi4yMzkgMi4yMzksLTIuMjM5IDEuMjM2NTY1LDAgMi4yMzksMS4wMDI0MyAyLjIzOSwyLjIzOSB6IiBpZD0iY2lyY2xlMjI1MyIgc3R5bGU9ImZpbGw6bm9uZTtzdHJva2U6IzAwMDAwMCIgcj0iMi4yMzkwMDAxIiBjeT0iMTUyLjQ5MSIgY3g9IjcyLjEwMjk5NyIvPiYjeGE7ICAgICAgICA8Y2lyY2xlIGQ9Im0gODUuMzY5OTk3LDE1Mi40OTEgYyAwLDEuMjM2NTYgLTEuMDAyNDM1LDIuMjM5IC0yLjIzOSwyLjIzOSAtMS4yMzY1NjYsMCAtMi4yMzksLTEuMDAyNDQgLTIuMjM5LC0yLjIzOSAwLC0xLjIzNjU3IDEuMDAyNDM0LC0yLjIzOSAyLjIzOSwtMi4yMzkgMS4yMzY1NjUsMCAyLjIzOSwxLjAwMjQzIDIuMjM5LDIuMjM5IHoiIGlkPSJjaXJjbGUyMjU1IiBzdHlsZT0iZmlsbDpub25lO3N0cm9rZTojMDAwMDAwIiByPSIyLjIzOTAwMDEiIGN5PSIxNTIuNDkxIiBjeD0iODMuMTMwOTk3Ii8+JiN4YTsgICAgICAgIDxwYXRoIGlkPSJwYXRoMjI1NyIgc3R5bGU9ImZpbGw6bm9uZTtzdHJva2U6IzAwMDAwMCIgZD0ibSA5NC4xNTYsMTUwLjI1MiBjIDEuMjM3LDAgMi4yMzgsMS4wMDMgMi4yMzgsMi4yMzcgMCwxLjIzNyAtMS4wMDEsMi4yNDEgLTIuMjM4LDIuMjQxIC0xLjIzOCwwIC0yLjI0MiwtMS4wMDQgLTIuMjQyLC0yLjI0MSAwLC0xLjIzNCAxLjAwNCwtMi4yMzcgMi4yNDIsLTIuMjM3IHoiLz4mI3hhOyAgICAgICAgPGNpcmNsZSBkPSJtIDEwNy40MjQsMTUyLjQ5MSBjIDAsMS4yMzY1NiAtMS4wMDI0NCwyLjIzOSAtMi4yMzksMi4yMzkgLTEuMjM2NTcsMCAtMi4yMzksLTEuMDAyNDQgLTIuMjM5LC0yLjIzOSAwLC0xLjIzNjU3IDEuMDAyNDMsLTIuMjM5IDIuMjM5LC0yLjIzOSAxLjIzNjU2LDAgMi4yMzksMS4wMDI0MyAyLjIzOSwyLjIzOSB6IiBpZD0iY2lyY2xlMjI1OSIgc3R5bGU9ImZpbGw6bm9uZTtzdHJva2U6IzAwMDAwMCIgcj0iMi4yMzkwMDAxIiBjeT0iMTUyLjQ5MSIgY3g9IjEwNS4xODUiLz4mI3hhOyAgICAgIDwvZz4mI3hhOyAgICAgIDxwYXRoIGlkPSJwYXRoMjI2MSIgc3R5bGU9ImZpbGw6bm9uZTtzdHJva2U6IzAwMDAwMCIgZD0ibSA2My42NDQsMTMwLjIyMiBjIC01LjYwOSwwIC05LjQsNC41MTggLTguNDI1LDEwLjA0MiBsIDIuMzU0LDEzLjMwOSBjIDAuOTc2LDUuNTI1IDYuMzY2LDEwLjA0OSAxMS45NzUsMTAuMDQ5IGwgMzguMTkxLDAgYyA1LjYwOCwwIDEwLjk5NiwtNC41MjMgMTEuOTc1LC0xMC4wNDkgbCAyLjM1NCwtMTMuMzA5IGMgMC45NzUsLTUuNTI0IC0yLjgxMywtMTAuMDQyIC04LjQyNSwtMTAuMDQyIGwgLTQ5Ljk5OSwwIHoiLz4mI3hhOyAgICAgIDxnIGlkPSJnMjI2MyI+JiN4YTsgICAgICAgIDxjaXJjbGUgZD0ibSA0Ni44MTM5OTgsMTQ2LjkyMiBjIDAsMi43OTEyNCAtMi4yNjI3NTMsNS4wNTQgLTUuMDU0LDUuMDU0IC0yLjc5MTI0NywwIC01LjA1NCwtMi4yNjI3NiAtNS4wNTQsLTUuMDU0IDAsLTIuNzkxMjUgMi4yNjI3NTMsLTUuMDU0IDUuMDU0LC01LjA1NCAyLjc5MTI0NywwIDUuMDU0LDIuMjYyNzUgNS4wNTQsNS4wNTQgeiIgaWQ9ImNpcmNsZTIyNjUiIHN0eWxlPSJmaWxsOm5vbmU7c3Ryb2tlOiMwMDAwMDAiIHI9IjUuMDUzOTk5OSIgY3k9IjE0Ni45MjIiIGN4PSI0MS43NTk5OTgiLz4mI3hhOyAgICAgICAgPGNpcmNsZSBkPSJtIDE0MC41ODIsMTQ2LjkyMiBjIDAsMi43OTEyNCAtMi4yNjI3NSw1LjA1NCAtNS4wNTQsNS4wNTQgLTIuNzkxMjUsMCAtNS4wNTQsLTIuMjYyNzYgLTUuMDU0LC01LjA1NCAwLC0yLjc5MTI1IDIuMjYyNzUsLTUuMDU0IDUuMDU0LC01LjA1NCAyLjc5MTI1LDAgNS4wNTQsMi4yNjI3NSA1LjA1NCw1LjA1NCB6IiBpZD0iY2lyY2xlMjI2NyIgc3R5bGU9ImZpbGw6bm9uZTtzdHJva2U6IzAwMDAwMCIgcj0iNS4wNTM5OTk5IiBjeT0iMTQ2LjkyMiIgY3g9IjEzNS41MjgiLz4mI3hhOyAgICAgIDwvZz4mI3hhOyAgICA8L2c+JiN4YTsgICAgPHRleHQgaWQ9InRleHQzMjU5IiB5PSIyNTYuMjkwNzQiIHg9IjE3My4yMTQyOSIgeG1sOnNwYWNlPSJwcmVzZXJ2ZSI+PHRzcGFuIHN0eWxlPSJmb250LXNpemU6OHB4IiB5PSIyNTYuMjkwNzQiIHg9IjE3My4yMTQyOSIgaWQ9InRzcGFuMzI2MSI+NTwvdHNwYW4+PC90ZXh0PiYjeGE7ICAgIDx0ZXh0IGlkPSJ0ZXh0MzI1OS0xIiB5PSIyNTYuMTkzNTEiIHg9IjIyNy41Mzc2MSIgeG1sOnNwYWNlPSJwcmVzZXJ2ZSI+PHRzcGFuIHN0eWxlPSJmb250LXNpemU6OHB4IiB5PSIyNTYuMTkzNTEiIHg9IjIyNy41Mzc2MSIgaWQ9InRzcGFuMzI2MS03Ij4xPC90c3Bhbj48L3RleHQ+JiN4YTsgICAgPHRleHQgaWQ9InRleHQzMjU5LTEtNCIgeT0iMjc0LjUwMjg3IiB4PSIxNzcuNTg0MDEiIHhtbDpzcGFjZT0icHJlc2VydmUiPjx0c3BhbiBzdHlsZT0iZm9udC1zaXplOjhweCIgeT0iMjc0LjUwMjg3IiB4PSIxNzcuNTg0MDEiIGlkPSJ0c3BhbjMyNjEtNy0wIj45PC90c3Bhbj48L3RleHQ+JiN4YTsgICAgPHRleHQgaWQ9InRleHQzMjU5LTEtOSIgeT0iMjc0LjUwMjUzIiB4PSIyMjMuOTI3NjEiIHhtbDpzcGFjZT0icHJlc2VydmUiPjx0c3BhbiBzdHlsZT0iZm9udC1zaXplOjhweCIgeT0iMjc0LjUwMjUzIiB4PSIyMjMuOTI3NjEiIGlkPSJ0c3BhbjMyNjEtNy00Ij42PC90c3Bhbj48L3RleHQ+JiN4YTsgIDwvZz4mI3hhOzwvc3ZnPg==;" vertex="1" parent="1">
          <mxGeometry x="103.26" y="270" width="338.33" height="140" as="geometry" />
        </mxCell>
        <mxCell id="SFipBMj3nhwFo_Jgz6M--3" value="" style="shape=image;verticalLabelPosition=bottom;labelBackgroundColor=default;verticalAlign=top;aspect=fixed;imageAspect=0;editableCssRules=.*;image=data:image/svg+xml,PHN2ZyB4bWxucz0iaHR0cDovL3d3dy53My5vcmcvMjAwMC9zdmciIGZvbnQtc2l6ZT0iNDBweCIgZm9udC13ZWlnaHQ9Im5vcm1hbCIgZm9udC1zdHJldGNoPSJjb25kZW5zZWQiIGZvbnQtZmFtaWx5PSJEZWphVnUgU2FucyxzYW5zLXNlcmlmIiB2ZXJzaW9uPSIxLjEiIGlkPSJzdmczMjE0IiBoZWlnaHQ9IjQ3LjY2MTk4NzMwNDY4NzUiIHdpZHRoPSIxMTYuMTc4MDA5MDMzMjAzMTIiIHZpZXdCb3g9IjUuOTk5OTg0NzQxMjEwOTM3NSA2IDExNi4xNzgwMDkwMzMyMDMxMiA0Ny42NjE5ODczMDQ2ODc1Ij4mI3hhOyAgPGRlZnMgaWQ9ImRlZnMzMjE2Ii8+JiN4YTsgICYjeGE7ICA8bWV0YWRhdGEgaWQ9Im1ldGFkYXRhMzIxOSI+JiN4YTsgICAgJiN4YTsgICAgICAmI3hhOyAgICAgICAgaW1hZ2Uvc3ZnK3htbCYjeGE7ICAgICAgICAmI3hhOyAgICAgICAgJiN4YTsgICAgICAmI3hhOyAgICAmI3hhOyAgPC9tZXRhZGF0YT4mI3hhOyAgPGcgdHJhbnNmb3JtPSJ0cmFuc2xhdGUoLTEzOC43NjgxNCwtMjMzLjk1OTc1KSIgaWQ9ImxheWVyMSI+JiN4YTsgICAgPGcgdHJhbnNmb3JtPSJ0cmFuc2xhdGUoMTE0LjIxMzE0LDExNi44NzA3NSkiIGlkPSJnMjIzNyI+JiN4YTsgICAgICA8cGF0aCBpZD0icGF0aDIyMzkiIHN0eWxlPSJmaWxsOiNmZmZmZmY7c3Ryb2tlOiMwMDAwMDA7c3Ryb2tlLXdpZHRoOjIiIGQ9Im0gMTQ2LjczMiwxNjQuNzUyIGMgMCwzLjMxMiAtMi42ODUsNS45OTkgLTYsNS45OTkgbCAtMTA0LjE3NywwIGMgLTMuMzE1LDAgLTYsLTIuNjg3IC02LC01Ljk5OSBsIDAsLTM1LjY2MyBjIDAsLTMuMzE2IDIuNjg1LC02IDYsLTYgbCAxMDQuMTc4LDAgYyAzLjMxNSwwIDYsMi42ODQgNiw2IGwgMCwzNS42NjMgLTAuMDAxLDAgeiIvPiYjeGE7ICAgICAgPGcgaWQ9ImcyMjQxIj4mI3hhOyAgICAgICAgPGNpcmNsZSBkPSJtIDY4LjgyOTk5NywxNDEuMzUxIGMgMCwxLjIzNzY3IC0xLjAwMzMzLDIuMjQxIC0yLjI0MSwyLjI0MSAtMS4yMzc2NywwIC0yLjI0MSwtMS4wMDMzMyAtMi4yNDEsLTIuMjQxIDAsLTEuMjM3NjcgMS4wMDMzMywtMi4yNDEgMi4yNDEsLTIuMjQxIDEuMjM3NjcsMCAyLjI0MSwxLjAwMzMzIDIuMjQxLDIuMjQxIHoiIGlkPSJjaXJjbGUyMjQzIiBzdHlsZT0iZmlsbDpibGFjaztzdHJva2U6bm9uZSIgcj0iMi4yNDA5OTk5IiBjeT0iMTQxLjM1MSIgY3g9IjY2LjU4ODk5NyIvPiYjeGE7ICAgICAgICA8Y2lyY2xlIGQ9Im0gNzkuODU4OTk2LDE0MS4zNTEgYyAwLDEuMjM3NjcgLTEuMDAzMzMsMi4yNDEgLTIuMjQxLDIuMjQxIC0xLjIzNzY3LDAgLTIuMjQxLC0xLjAwMzMzIC0yLjI0MSwtMi4yNDEgMCwtMS4yMzc2NyAxLjAwMzMzLC0yLjI0MSAyLjI0MSwtMi4yNDEgMS4yMzc2NywwIDIuMjQxLDEuMDAzMzMgMi4yNDEsMi4yNDEgeiIgaWQ9ImNpcmNsZTIyNDUiIHN0eWxlPSJmaWxsOmJsYWNrO3N0cm9rZTpub25lIiByPSIyLjI0MDk5OTkiIGN5PSIxNDEuMzUxIiBjeD0iNzcuNjE3OTk2Ii8+JiN4YTsgICAgICAgIDxjaXJjbGUgZD0ibSA5MC44ODE5OTcsMTQxLjM1MSBjIDAsMS4yMzYwMSAtMS4wMDE5ODcsMi4yMzggLTIuMjM4LDIuMjM4IC0xLjIzNjAxMywwIC0yLjIzOCwtMS4wMDE5OSAtMi4yMzgsLTIuMjM4IDAsLTEuMjM2MDIgMS4wMDE5ODcsLTIuMjM4IDIuMjM4LC0yLjIzOCAxLjIzNjAxMywwIDIuMjM4LDEuMDAxOTggMi4yMzgsMi4yMzggeiIgaWQ9ImNpcmNsZTIyNDciIHN0eWxlPSJmaWxsOmJsYWNrO3N0cm9rZTpub25lIiByPSIyLjIzNzk5OTkiIGN5PSIxNDEuMzUxIiBjeD0iODguNjQzOTk3Ii8+JiN4YTsgICAgICAgIDxwYXRoIGlkPSJwYXRoMjI0OSIgc3R5bGU9ImZpbGw6YmxhY2s7c3Ryb2tlOm5vbmUiIGQ9Im0gOTkuNjY4LDEzOS4xMSBjIDEuMjM4LDAgMi4yNDIsMS4wMDQgMi4yNDIsMi4yNDEgMCwxLjIzNyAtMS4wMDQsMi4yNCAtMi4yNDIsMi4yNCAtMS4yMzMsMCAtMi4yMzcsLTEuMDAzIC0yLjIzNywtMi4yNCAwLC0xLjIzNyAxLjAwNCwtMi4yNDEgMi4yMzcsLTIuMjQxIHoiLz4mI3hhOyAgICAgICAgPGNpcmNsZSBkPSJtIDExMi45MzgsMTQxLjM1MSBjIDAsMS4yMzc2NyAtMS4wMDMzMywyLjI0MSAtMi4yNDEsMi4yNDEgLTEuMjM3NjcsMCAtMi4yNDEsLTEuMDAzMzMgLTIuMjQxLC0yLjI0MSAwLC0xLjIzNzY3IDEuMDAzMzMsLTIuMjQxIDIuMjQxLC0yLjI0MSAxLjIzNzY3LDAgMi4yNDEsMS4wMDMzMyAyLjI0MSwyLjI0MSB6IiBpZD0iY2lyY2xlMjI1MSIgc3R5bGU9ImZpbGw6YmxhY2s7c3Ryb2tlOm5vbmUiIHI9IjIuMjQwOTk5OSIgY3k9IjE0MS4zNTEiIGN4PSIxMTAuNjk3Ii8+JiN4YTsgICAgICAgIDxjaXJjbGUgZD0ibSA3NC4zNDE5OTcsMTUyLjQ5MSBjIDAsMS4yMzY1NiAtMS4wMDI0MzUsMi4yMzkgLTIuMjM5LDIuMjM5IC0xLjIzNjU2NiwwIC0yLjIzOSwtMS4wMDI0NCAtMi4yMzksLTIuMjM5IDAsLTEuMjM2NTcgMS4wMDI0MzQsLTIuMjM5IDIuMjM5LC0yLjIzOSAxLjIzNjU2NSwwIDIuMjM5LDEuMDAyNDMgMi4yMzksMi4yMzkgeiIgaWQ9ImNpcmNsZTIyNTMiIHN0eWxlPSJmaWxsOmJsYWNrO3N0cm9rZTpub25lIiByPSIyLjIzOTAwMDEiIGN5PSIxNTIuNDkxIiBjeD0iNzIuMTAyOTk3Ii8+JiN4YTsgICAgICAgIDxjaXJjbGUgZD0ibSA4NS4zNjk5OTcsMTUyLjQ5MSBjIDAsMS4yMzY1NiAtMS4wMDI0MzUsMi4yMzkgLTIuMjM5LDIuMjM5IC0xLjIzNjU2NiwwIC0yLjIzOSwtMS4wMDI0NCAtMi4yMzksLTIuMjM5IDAsLTEuMjM2NTcgMS4wMDI0MzQsLTIuMjM5IDIuMjM5LC0yLjIzOSAxLjIzNjU2NSwwIDIuMjM5LDEuMDAyNDMgMi4yMzksMi4yMzkgeiIgaWQ9ImNpcmNsZTIyNTUiIHN0eWxlPSJmaWxsOmJsYWNrO3N0cm9rZTpub25lIiByPSIyLjIzOTAwMDEiIGN5PSIxNTIuNDkxIiBjeD0iODMuMTMwOTk3Ii8+JiN4YTsgICAgICAgIDxwYXRoIGlkPSJwYXRoMjI1NyIgc3R5bGU9ImZpbGw6YmxhY2s7c3Ryb2tlOm5vbmUiIGQ9Im0gOTQuMTU2LDE1MC4yNTIgYyAxLjIzNywwIDIuMjM4LDEuMDAzIDIuMjM4LDIuMjM3IDAsMS4yMzcgLTEuMDAxLDIuMjQxIC0yLjIzOCwyLjI0MSAtMS4yMzgsMCAtMi4yNDIsLTEuMDA0IC0yLjI0MiwtMi4yNDEgMCwtMS4yMzQgMS4wMDQsLTIuMjM3IDIuMjQyLC0yLjIzNyB6Ii8+JiN4YTsgICAgICAgIDxjaXJjbGUgZD0ibSAxMDcuNDI0LDE1Mi40OTEgYyAwLDEuMjM2NTYgLTEuMDAyNDQsMi4yMzkgLTIuMjM5LDIuMjM5IC0xLjIzNjU3LDAgLTIuMjM5LC0xLjAwMjQ0IC0yLjIzOSwtMi4yMzkgMCwtMS4yMzY1NyAxLjAwMjQzLC0yLjIzOSAyLjIzOSwtMi4yMzkgMS4yMzY1NiwwIDIuMjM5LDEuMDAyNDMgMi4yMzksMi4yMzkgeiIgaWQ9ImNpcmNsZTIyNTkiIHN0eWxlPSJmaWxsOmJsYWNrO3N0cm9rZTpub25lIiByPSIyLjIzOTAwMDEiIGN5PSIxNTIuNDkxIiBjeD0iMTA1LjE4NSIvPiYjeGE7ICAgICAgPC9nPiYjeGE7ICAgICAgPHBhdGggaWQ9InBhdGgyMjYxIiBzdHlsZT0iZmlsbDpub25lO3N0cm9rZTojMDAwMDAwIiBkPSJtIDYzLjY0NCwxMzAuMjIyIGMgLTUuNjA5LDAgLTkuNCw0LjUxOCAtOC40MjUsMTAuMDQyIGwgMi4zNTQsMTMuMzA5IGMgMC45NzYsNS41MjUgNi4zNjYsMTAuMDQ5IDExLjk3NSwxMC4wNDkgbCAzOC4xOTEsMCBjIDUuNjA4LDAgMTAuOTk2LC00LjUyMyAxMS45NzUsLTEwLjA0OSBsIDIuMzU0LC0xMy4zMDkgYyAwLjk3NSwtNS41MjQgLTIuODEzLC0xMC4wNDIgLTguNDI1LC0xMC4wNDIgbCAtNDkuOTk5LDAgeiIvPiYjeGE7ICAgICAgPGcgaWQ9ImcyMjYzIj4mI3hhOyAgICAgICAgPGNpcmNsZSBkPSJtIDQ2LjgxMzk5OCwxNDYuOTIyIGMgMCwyLjc5MTI0IC0yLjI2Mjc1Myw1LjA1NCAtNS4wNTQsNS4wNTQgLTIuNzkxMjQ3LDAgLTUuMDU0LC0yLjI2Mjc2IC01LjA1NCwtNS4wNTQgMCwtMi43OTEyNSAyLjI2Mjc1MywtNS4wNTQgNS4wNTQsLTUuMDU0IDIuNzkxMjQ3LDAgNS4wNTQsMi4yNjI3NSA1LjA1NCw1LjA1NCB6IiBpZD0iY2lyY2xlMjI2NSIgc3R5bGU9ImZpbGw6bm9uZTtzdHJva2U6IzAwMDAwMCIgcj0iNS4wNTM5OTk5IiBjeT0iMTQ2LjkyMiIgY3g9IjQxLjc1OTk5OCIvPiYjeGE7ICAgICAgICA8Y2lyY2xlIGQ9Im0gMTQwLjU4MiwxNDYuOTIyIGMgMCwyLjc5MTI0IC0yLjI2Mjc1LDUuMDU0IC01LjA1NCw1LjA1NCAtMi43OTEyNSwwIC01LjA1NCwtMi4yNjI3NiAtNS4wNTQsLTUuMDU0IDAsLTIuNzkxMjUgMi4yNjI3NSwtNS4wNTQgNS4wNTQsLTUuMDU0IDIuNzkxMjUsMCA1LjA1NCwyLjI2Mjc1IDUuMDU0LDUuMDU0IHoiIGlkPSJjaXJjbGUyMjY3IiBzdHlsZT0iZmlsbDpub25lO3N0cm9rZTojMDAwMDAwIiByPSI1LjA1Mzk5OTkiIGN5PSIxNDYuOTIyIiBjeD0iMTM1LjUyOCIvPiYjeGE7ICAgICAgPC9nPiYjeGE7ICAgIDwvZz4mI3hhOyAgICA8dGV4dCBpZD0idGV4dDMyNTkiIHk9IjI1Ni4yOTA3NCIgeD0iMTczLjIxNDI5IiB4bWw6c3BhY2U9InByZXNlcnZlIj48dHNwYW4gc3R5bGU9ImZvbnQtc2l6ZTo4cHgiIHk9IjI1Ni4yOTA3NCIgeD0iMTczLjIxNDI5IiBpZD0idHNwYW4zMjYxIj4xPC90c3Bhbj48L3RleHQ+JiN4YTsgICAgPHRleHQgaWQ9InRleHQzMjU5LTEiIHk9IjI1Ni4xOTM1MSIgeD0iMjI3LjUzNzYxIiB4bWw6c3BhY2U9InByZXNlcnZlIj48dHNwYW4gc3R5bGU9ImZvbnQtc2l6ZTo4cHgiIHk9IjI1Ni4xOTM1MSIgeD0iMjI3LjUzNzYxIiBpZD0idHNwYW4zMjYxLTciPjU8L3RzcGFuPjwvdGV4dD4mI3hhOyAgICA8dGV4dCBpZD0idGV4dDMyNTktMS00IiB5PSIyNzQuNTAyODciIHg9IjE3Ny41ODQwMSIgeG1sOnNwYWNlPSJwcmVzZXJ2ZSI+PHRzcGFuIHN0eWxlPSJmb250LXNpemU6OHB4IiB5PSIyNzQuNTAyODciIHg9IjE3Ny41ODQwMSIgaWQ9InRzcGFuMzI2MS03LTAiPjY8L3RzcGFuPjwvdGV4dD4mI3hhOyAgICA8dGV4dCBpZD0idGV4dDMyNTktMS05IiB5PSIyNzQuNTAyNTMiIHg9IjIyMy45Mjc2MSIgeG1sOnNwYWNlPSJwcmVzZXJ2ZSI+PHRzcGFuIHN0eWxlPSJmb250LXNpemU6OHB4IiB5PSIyNzQuNTAyNTMiIHg9IjIyMy45Mjc2MSIgaWQ9InRzcGFuMzI2MS03LTQiPjk8L3RzcGFuPjwvdGV4dD4mI3hhOyAgPC9nPiYjeGE7PC9zdmc+;" vertex="1" parent="1">
          <mxGeometry x="102.16999999999999" y="680" width="338.34" height="140" as="geometry" />
        </mxCell>
        <mxCell id="SFipBMj3nhwFo_Jgz6M--4" value="LB5JJ - CM108 Digital Interface" style="text;html=1;align=center;verticalAlign=middle;whiteSpace=wrap;rounded=0;fontSize=42;" vertex="1" parent="1">
          <mxGeometry x="100" y="60" width="620" height="70" as="geometry" />
        </mxCell>
        <mxCell id="SFipBMj3nhwFo_Jgz6M--5" value="Revision: 1" style="text;html=1;align=center;verticalAlign=middle;whiteSpace=wrap;rounded=0;fontSize=21;" vertex="1" parent="1">
          <mxGeometry x="100" y="120" width="130" height="30" as="geometry" />
        </mxCell>
        <mxCell id="SFipBMj3nhwFo_Jgz6M--6" value="&quot;KANTRONICS CONNECTION&quot; DIAGRAM" style="text;html=1;align=center;verticalAlign=middle;whiteSpace=wrap;rounded=0;fontSize=21;" vertex="1" parent="1">
          <mxGeometry x="100" y="150" width="420" height="30" as="geometry" />
        </mxCell>
        <mxCell id="SFipBMj3nhwFo_Jgz6M--7" value="As seen from outside the enclosure" style="text;html=1;align=center;verticalAlign=middle;whiteSpace=wrap;rounded=0;fontSize=21;" vertex="1" parent="1">
          <mxGeometry x="101.09" y="240" width="340" height="30" as="geometry" />
        </mxCell>
        <mxCell id="SFipBMj3nhwFo_Jgz6M--8" value="As seen from inside the enclosure" style="text;html=1;align=center;verticalAlign=middle;whiteSpace=wrap;rounded=0;fontSize=21;" vertex="1" parent="1">
          <mxGeometry x="100" y="640" width="330" height="30" as="geometry" />
        </mxCell>
        <mxCell id="SFipBMj3nhwFo_Jgz6M--10" value="1: To radio &quot;AF IN&quot;" style="text;html=1;align=left;verticalAlign=middle;whiteSpace=wrap;rounded=0;fontFamily=Courier New;fontSize=21;" vertex="1" parent="1">
          <mxGeometry x="122.17000000000002" y="430" width="550" height="30" as="geometry" />
        </mxCell>
        <mxCell id="SFipBMj3nhwFo_Jgz6M--11" value="3: To radio PTT" style="text;html=1;align=left;verticalAlign=middle;whiteSpace=wrap;rounded=0;fontFamily=Courier New;fontSize=21;" vertex="1" parent="1">
          <mxGeometry x="122.17000000000002" y="460" width="550" height="30" as="geometry" />
        </mxCell>
        <mxCell id="SFipBMj3nhwFo_Jgz6M--12" value="5: To radio &quot;AF OUT&quot;" style="text;html=1;align=left;verticalAlign=middle;whiteSpace=wrap;rounded=0;fontFamily=Courier New;fontSize=21;" vertex="1" parent="1">
          <mxGeometry x="122.17000000000002" y="490" width="550" height="30" as="geometry" />
        </mxCell>
        <mxCell id="SFipBMj3nhwFo_Jgz6M--13" value="6: Ground" style="text;html=1;align=left;verticalAlign=middle;whiteSpace=wrap;rounded=0;fontFamily=Courier New;fontSize=21;" vertex="1" parent="1">
          <mxGeometry x="122.17000000000002" y="520" width="550" height="30" as="geometry" />
        </mxCell>
        <mxCell id="SFipBMj3nhwFo_Jgz6M--15" value="" style="rounded=1;whiteSpace=wrap;html=1;strokeWidth=3;" vertex="1" parent="1">
          <mxGeometry x="102.16999999999996" y="830" width="337.83" height="140" as="geometry" />
        </mxCell>
        <mxCell id="SFipBMj3nhwFo_Jgz6M--16" value="1: CM108 Headphone Tip" style="text;html=1;align=left;verticalAlign=middle;whiteSpace=wrap;rounded=0;fontFamily=Courier New;fontSize=21;" vertex="1" parent="1">
          <mxGeometry x="122.16999999999996" y="840" width="550" height="30" as="geometry" />
        </mxCell>
        <mxCell id="SFipBMj3nhwFo_Jgz6M--17" value="3: CM108 PTT Buffer" style="text;html=1;align=left;verticalAlign=middle;whiteSpace=wrap;rounded=0;fontFamily=Courier New;fontSize=21;" vertex="1" parent="1">
          <mxGeometry x="122.16999999999996" y="870" width="550" height="30" as="geometry" />
        </mxCell>
        <mxCell id="SFipBMj3nhwFo_Jgz6M--18" value="5: CM108 Microphone Tip" style="text;html=1;align=left;verticalAlign=middle;whiteSpace=wrap;rounded=0;fontFamily=Courier New;fontSize=21;" vertex="1" parent="1">
          <mxGeometry x="122.16999999999996" y="900" width="550" height="30" as="geometry" />
        </mxCell>
        <mxCell id="SFipBMj3nhwFo_Jgz6M--19" value="6: Ground" style="text;html=1;align=left;verticalAlign=middle;whiteSpace=wrap;rounded=0;fontFamily=Courier New;fontSize=21;" vertex="1" parent="1">
          <mxGeometry x="122.16999999999996" y="930" width="550" height="30" as="geometry" />
        </mxCell>
      </root>
    </mxGraphModel>
  </diagram>
</mxfile>
